<mxfile host="Electron" modified="2024-04-30T02:15:32.208Z" agent="Mozilla/5.0 (Windows NT 10.0; Win64; x64) AppleWebKit/537.36 (KHTML, like Gecko) draw.io/24.2.5 Chrome/120.0.6099.109 Electron/28.1.0 Safari/537.36" etag="HHKrE1brubBiozvuWoLa" version="24.2.5" type="device">
  <diagram id="C5RBs43oDa-KdzZeNtuy" name="Page-1">
    <mxGraphModel dx="2022" dy="703" grid="1" gridSize="10" guides="1" tooltips="1" connect="1" arrows="1" fold="1" page="1" pageScale="1" pageWidth="827" pageHeight="1169" math="0" shadow="0">
      <root>
        <mxCell id="WIyWlLk6GJQsqaUBKTNV-0" />
        <mxCell id="WIyWlLk6GJQsqaUBKTNV-1" parent="WIyWlLk6GJQsqaUBKTNV-0" />
        <mxCell id="gUQcon4SBQwVMYS5gI7r-4" value="" style="edgeStyle=orthogonalEdgeStyle;rounded=0;orthogonalLoop=1;jettySize=auto;html=1;" edge="1" parent="WIyWlLk6GJQsqaUBKTNV-1" source="gUQcon4SBQwVMYS5gI7r-0" target="gUQcon4SBQwVMYS5gI7r-2">
          <mxGeometry relative="1" as="geometry" />
        </mxCell>
        <mxCell id="gUQcon4SBQwVMYS5gI7r-0" value="Packet Injestor" style="rounded=1;whiteSpace=wrap;html=1;" vertex="1" parent="WIyWlLk6GJQsqaUBKTNV-1">
          <mxGeometry x="160" y="110" width="120" height="60" as="geometry" />
        </mxCell>
        <mxCell id="gUQcon4SBQwVMYS5gI7r-5" value="" style="edgeStyle=orthogonalEdgeStyle;rounded=0;orthogonalLoop=1;jettySize=auto;html=1;" edge="1" parent="WIyWlLk6GJQsqaUBKTNV-1" source="gUQcon4SBQwVMYS5gI7r-2" target="gUQcon4SBQwVMYS5gI7r-3">
          <mxGeometry relative="1" as="geometry" />
        </mxCell>
        <mxCell id="gUQcon4SBQwVMYS5gI7r-2" value="Rules Engine" style="rounded=1;whiteSpace=wrap;html=1;" vertex="1" parent="WIyWlLk6GJQsqaUBKTNV-1">
          <mxGeometry x="160" y="230" width="120" height="60" as="geometry" />
        </mxCell>
        <mxCell id="gUQcon4SBQwVMYS5gI7r-13" style="edgeStyle=none;rounded=0;orthogonalLoop=1;jettySize=auto;html=1;exitX=1;exitY=0.5;exitDx=0;exitDy=0;entryX=0;entryY=0.5;entryDx=0;entryDy=0;" edge="1" parent="WIyWlLk6GJQsqaUBKTNV-1" source="gUQcon4SBQwVMYS5gI7r-3" target="gUQcon4SBQwVMYS5gI7r-9">
          <mxGeometry relative="1" as="geometry" />
        </mxCell>
        <mxCell id="gUQcon4SBQwVMYS5gI7r-3" value="Alert Generator" style="rounded=1;whiteSpace=wrap;html=1;" vertex="1" parent="WIyWlLk6GJQsqaUBKTNV-1">
          <mxGeometry x="160" y="340" width="120" height="60" as="geometry" />
        </mxCell>
        <mxCell id="gUQcon4SBQwVMYS5gI7r-6" value="User" style="shape=umlActor;verticalLabelPosition=bottom;verticalAlign=top;html=1;outlineConnect=0;" vertex="1" parent="WIyWlLk6GJQsqaUBKTNV-1">
          <mxGeometry x="650" y="340" width="30" height="60" as="geometry" />
        </mxCell>
        <mxCell id="gUQcon4SBQwVMYS5gI7r-12" value="" style="edgeStyle=orthogonalEdgeStyle;rounded=0;orthogonalLoop=1;jettySize=auto;html=1;" edge="1" parent="WIyWlLk6GJQsqaUBKTNV-1" source="gUQcon4SBQwVMYS5gI7r-9" target="gUQcon4SBQwVMYS5gI7r-6">
          <mxGeometry relative="1" as="geometry" />
        </mxCell>
        <mxCell id="gUQcon4SBQwVMYS5gI7r-9" value="Visualization" style="rounded=1;whiteSpace=wrap;html=1;" vertex="1" parent="WIyWlLk6GJQsqaUBKTNV-1">
          <mxGeometry x="480" y="340" width="120" height="60" as="geometry" />
        </mxCell>
        <mxCell id="gUQcon4SBQwVMYS5gI7r-11" value="" style="edgeStyle=orthogonalEdgeStyle;rounded=0;orthogonalLoop=1;jettySize=auto;html=1;" edge="1" parent="WIyWlLk6GJQsqaUBKTNV-1" source="gUQcon4SBQwVMYS5gI7r-10" target="gUQcon4SBQwVMYS5gI7r-2">
          <mxGeometry relative="1" as="geometry" />
        </mxCell>
        <mxCell id="gUQcon4SBQwVMYS5gI7r-10" value="Rules Files" style="shape=document;whiteSpace=wrap;html=1;boundedLbl=1;" vertex="1" parent="WIyWlLk6GJQsqaUBKTNV-1">
          <mxGeometry x="-70" y="220" width="120" height="80" as="geometry" />
        </mxCell>
        <mxCell id="gUQcon4SBQwVMYS5gI7r-14" value="" style="shape=flexArrow;endArrow=classic;html=1;rounded=0;entryX=1;entryY=0.5;entryDx=0;entryDy=0;" edge="1" parent="WIyWlLk6GJQsqaUBKTNV-1" target="gUQcon4SBQwVMYS5gI7r-0">
          <mxGeometry width="50" height="50" relative="1" as="geometry">
            <mxPoint x="470" y="139.5" as="sourcePoint" />
            <mxPoint x="300" y="139.5" as="targetPoint" />
          </mxGeometry>
        </mxCell>
        <mxCell id="gUQcon4SBQwVMYS5gI7r-15" value="Packets" style="edgeLabel;html=1;align=center;verticalAlign=middle;resizable=0;points=[];" vertex="1" connectable="0" parent="gUQcon4SBQwVMYS5gI7r-14">
          <mxGeometry x="-0.242" y="4" relative="1" as="geometry">
            <mxPoint y="-24" as="offset" />
          </mxGeometry>
        </mxCell>
      </root>
    </mxGraphModel>
  </diagram>
</mxfile>
